<?xml version="1.0" encoding="UTF-8"?>
<!DOCTYPE svg PUBLIC "-//W3C//DTD SVG 1.1//EN" "http://www.w3.org/Graphics/SVG/1.1/DTD/svg11.dtd">
<svg xmlns="http://www.w3.org/2000/svg" version="1.1" width="721px" height="720px" style="shape-rendering:geometricPrecision; text-rendering:geometricPrecision; image-rendering:optimizeQuality; fill-rule:evenodd; clip-rule:evenodd" xmlns:xlink="http://www.w3.org/1999/xlink">
<g><path style="opacity:0.75" fill="#dc4d22" d="M 715.5,420.5 C 716.156,421.622 716.489,422.955 716.5,424.5C 714.563,440.627 710.23,455.961 703.5,470.5C 707.528,453.725 711.528,437.059 715.5,420.5 Z"/></g>
<g><path style="opacity:0.584" fill="#df5022" d="M 680.5,525.5 C 679.235,530.295 677.568,534.962 675.5,539.5C 674.311,540.429 672.978,540.762 671.5,540.5C 674.263,535.299 677.263,530.299 680.5,525.5 Z"/></g>
<g><path style="opacity:0.102" fill="#e24c26" d="M 46.5,535.5 C 48.588,537.336 49.9213,539.669 50.5,542.5C 48.412,540.664 47.0787,538.331 46.5,535.5 Z"/></g>
<g><path style="opacity:0.988" fill="#262120" d="M 720.5,341.5 C 720.5,353.5 720.5,365.5 720.5,377.5C 719.306,391.746 717.64,406.079 715.5,420.5C 711.528,437.059 707.528,453.725 703.5,470.5C 697.173,489.476 689.507,507.809 680.5,525.5C 677.263,530.299 674.263,535.299 671.5,540.5C 616.187,632.896 535.521,690.396 429.5,713C 412.119,716.006 394.785,718.173 377.5,719.5C 366.167,719.5 354.833,719.5 343.5,719.5C 230.512,711.571 139.678,662.904 71,573.5C 63.9109,563.262 57.0776,552.928 50.5,542.5C 49.9213,539.669 48.588,537.336 46.5,535.5C -7.04237,433.986 -13.209,329.653 28,222.5C 66.2962,133.204 129.796,68.7036 218.5,29C 294.933,-2.56362 373.267,-8.23029 453.5,12C 552.138,39.9932 626.638,98.4932 677,187.5C 702.733,235.78 717.233,287.113 720.5,341.5 Z"/></g>
<g><path style="opacity:1" fill="#ebb72a" d="M 423.5,589.5 C 490.998,590.627 558.664,591.293 626.5,591.5C 610.09,611.243 591.423,628.576 570.5,643.5C 522.832,643.667 475.166,643.5 427.5,643C 413.994,642.831 400.66,642.331 387.5,641.5C 394.551,636.097 400.718,629.763 406,622.5C 412.911,612.009 418.744,601.009 423.5,589.5 Z"/></g>
<g><path style="opacity:1" fill="#ebb72a" d="M 92.5,589.5 C 159.691,589.526 226.691,589.526 293.5,589.5C 302.684,609.686 315.684,627.019 332.5,641.5C 271.33,642.745 209.996,642.745 148.5,641.5C 127.649,626.654 108.983,609.321 92.5,589.5 Z"/></g>
<g><path style="opacity:1" fill="#edba29" d="M 429.5,572.5 C 500.5,572.5 571.5,572.5 642.5,572.5C 637.889,579.444 632.555,585.778 626.5,591.5C 558.664,591.293 490.998,590.627 423.5,589.5C 425.513,583.793 427.513,578.126 429.5,572.5 Z"/></g>
<g><path style="opacity:1" fill="#edba29" d="M 284.5,569.5 C 287.86,575.876 290.86,582.542 293.5,589.5C 226.691,589.526 159.691,589.526 92.5,589.5C 87.119,583.454 82.119,577.121 77.5,570.5C 124,570.792 170.5,571.125 217,571.5C 239.843,571.5 262.343,570.833 284.5,569.5 Z"/></g>
<g><path style="opacity:1" fill="#efbd29" d="M 443.5,512.5 C 443.5,513.833 443.5,515.167 443.5,516.5C 500.834,516.667 558.168,516.5 615.5,516C 614.748,515.329 614.414,514.496 614.5,513.5C 617.233,516.239 620.233,518.573 623.5,520.5C 624.716,522.451 626.382,523.951 628.5,525C 638.013,530.422 648.013,534.756 658.5,538C 660.81,538.497 663.143,538.663 665.5,538.5C 658.583,550.403 650.916,561.736 642.5,572.5C 571.5,572.5 500.5,572.5 429.5,572.5C 434.823,552.534 439.489,532.534 443.5,512.5 Z"/></g>
<g><path style="opacity:1" fill="#efbd29" d="M 136.5,493.5 C 132.628,501.395 127.628,508.561 121.5,515C 170.499,515.5 219.499,515.667 268.5,515.5C 272.583,533.824 277.916,551.824 284.5,569.5C 262.343,570.833 239.843,571.5 217,571.5C 170.5,571.125 124,570.792 77.5,570.5C 70.4235,561.355 64.0902,551.688 58.5,541.5C 92.3779,538.231 118.378,522.231 136.5,493.5 Z"/></g>
<g><path style="opacity:1" fill="#f2c327" d="M 586.5,464.5 C 587.167,465.5 587.833,466.5 588.5,467.5C 592.482,485.462 601.149,500.796 614.5,513.5C 614.414,514.496 614.748,515.329 615.5,516C 558.168,516.5 500.834,516.667 443.5,516.5C 443.5,515.167 443.5,513.833 443.5,512.5C 446.507,497.042 449.507,481.708 452.5,466.5C 497.512,467.162 542.179,466.495 586.5,464.5 Z"/></g>
<g><path style="opacity:1" fill="#f2c327" d="M 325.5,396.5 C 298.208,408.943 271.208,408.11 244.5,394C 243.251,393.26 242.251,393.427 241.5,394.5C 235.875,390.709 231.042,386.043 227,380.5C 227.451,382.52 228.284,384.52 229.5,386.5C 230.621,390.474 232.454,394.14 235,397.5C 238.363,401.525 241.696,405.525 245,409.5C 249.693,424.58 253.359,439.913 256,455.5C 256.417,456.756 257.25,457.423 258.5,457.5C 261.613,476.831 264.947,496.165 268.5,515.5C 219.499,515.667 170.499,515.5 121.5,515C 127.628,508.561 132.628,501.395 136.5,493.5C 138.335,492.878 139.502,491.544 140,489.5C 141.812,484.889 143.312,480.223 144.5,475.5C 144.232,473.901 144.566,472.568 145.5,471.5C 146.5,469.5 147.5,467.5 148.5,465.5C 185.167,465.5 221.833,465.5 258.5,465.5C 258.5,464.5 258.5,463.5 258.5,462.5C 254.781,462.998 251.447,462.164 248.5,460C 251.167,459.667 253.833,459.333 256.5,459C 253.466,457.614 250.8,455.781 248.5,453.5C 249.025,452.808 249.692,452.308 250.5,452C 248.986,448.212 247.319,444.379 245.5,440.5C 245.576,437.613 245.576,434.78 245.5,432C 243.502,426.761 241.836,421.595 240.5,416.5C 240.709,415.914 241.043,415.414 241.5,415C 235.373,405.38 229.707,395.047 224.5,384C 225.418,381.867 225.584,379.7 225,377.5C 236.524,384.014 248.357,390.181 260.5,396C 266.695,397.431 272.695,399.431 278.5,402C 281.343,402.446 284.176,402.946 287,403.5C 299.87,401.216 312.704,398.883 325.5,396.5 Z"/></g>
<g><path style="opacity:1" fill="#1f150e" d="M 360.5,366.5 C 360.704,368.685 361.37,370.685 362.5,372.5C 361.603,371.402 360.77,371.402 360,372.5C 352.265,389.237 339.765,400.737 322.5,407C 305.143,412.471 287.476,413.804 269.5,411C 263.869,410.017 258.536,408.184 253.5,405.5C 257.214,433.456 261.714,461.456 267,489.5C 267.333,490.167 267.667,490.833 268,491.5C 269.129,489.859 270.629,488.859 272.5,488.5C 271.04,490.463 269.373,492.296 267.5,494C 269.991,504.979 272.658,515.812 275.5,526.5C 275.232,528.099 275.566,529.432 276.5,530.5C 277.076,535.809 278.409,540.809 280.5,545.5C 282.398,553.53 285.064,561.197 288.5,568.5C 292.938,581.376 298.938,593.376 306.5,604.5C 315.876,623.378 329.876,637.878 348.5,648C 355.711,650.878 363.044,651.212 370.5,649C 391.621,638.711 406.288,622.544 414.5,600.5C 420.399,588.471 424.733,575.804 427.5,562.5C 430.102,554.76 432.102,546.76 433.5,538.5C 434.943,534.385 435.943,530.052 436.5,525.5C 437.234,524.292 437.567,522.959 437.5,521.5C 440.193,510.374 442.526,499.04 444.5,487.5C 444.457,486.584 444.124,485.917 443.5,485.5C 444.167,484.833 444.833,484.167 445.5,483.5C 450.564,456.65 454.398,429.65 457,402.5C 426.53,413.006 399.03,407.84 374.5,387C 371.882,384.894 369.882,382.394 368.5,379.5C 373.55,383.885 378.884,387.885 384.5,391.5C 408.684,407.315 434.351,409.815 461.5,399C 467.046,396.396 472.379,393.563 477.5,390.5C 472.751,395.388 467.084,399.054 460.5,401.5C 458.949,410.772 457.949,420.106 457.5,429.5C 455.555,441.78 453.889,454.113 452.5,466.5C 449.507,481.708 446.507,497.042 443.5,512.5C 439.489,532.534 434.823,552.534 429.5,572.5C 427.513,578.126 425.513,583.793 423.5,589.5C 418.744,601.009 412.911,612.009 406,622.5C 400.718,629.763 394.551,636.097 387.5,641.5C 369.306,655.631 350.973,655.631 332.5,641.5C 315.684,627.019 302.684,609.686 293.5,589.5C 290.86,582.542 287.86,575.876 284.5,569.5C 277.916,551.824 272.583,533.824 268.5,515.5C 264.947,496.165 261.613,476.831 258.5,457.5C 255.423,439.94 252.923,422.273 251,404.5C 243.083,399.418 235.916,393.418 229.5,386.5C 228.284,384.52 227.451,382.52 227,380.5C 231.042,386.043 235.875,390.709 241.5,394.5C 251.245,402.704 262.578,407.537 275.5,409C 299.229,411.193 321.229,406.193 341.5,394C 350.96,386.887 357.293,377.721 360.5,366.5 Z"/></g>
<g><path style="opacity:1" fill="#e57172" d="M 414.5,600.5 C 406.288,622.544 391.621,638.711 370.5,649C 363.044,651.212 355.711,650.878 348.5,648C 329.876,637.878 315.876,623.378 306.5,604.5C 341.525,602.906 376.525,600.906 411.5,598.5C 413.03,598.64 414.03,599.307 414.5,600.5 Z"/></g>
<g><path style="opacity:1" fill="#e16d6e" d="M 427.5,562.5 C 424.733,575.804 420.399,588.471 414.5,600.5C 414.03,599.307 413.03,598.64 411.5,598.5C 376.525,600.906 341.525,602.906 306.5,604.5C 298.938,593.376 292.938,581.376 288.5,568.5C 334.556,566.349 380.556,563.682 426.5,560.5C 427.298,560.957 427.631,561.624 427.5,562.5 Z"/></g>
<g><path style="opacity:1" fill="#da6567" d="M 433.5,538.5 C 432.102,546.76 430.102,554.76 427.5,562.5C 427.631,561.624 427.298,560.957 426.5,560.5C 380.556,563.682 334.556,566.349 288.5,568.5C 285.064,561.197 282.398,553.53 280.5,545.5C 280.414,544.504 280.748,543.671 281.5,543C 325.668,540.518 369.834,538.018 414,535.5C 418.81,535.388 423.477,536.055 428,537.5C 429.561,537.397 431.061,537.063 432.5,536.5C 433.298,536.957 433.631,537.624 433.5,538.5 Z"/></g>
<g><path style="opacity:1" fill="#d35e60" d="M 436.5,525.5 C 435.943,530.052 434.943,534.385 433.5,538.5C 433.631,537.624 433.298,536.957 432.5,536.5C 431.061,537.063 429.561,537.397 428,537.5C 423.477,536.055 418.81,535.388 414,535.5C 369.834,538.018 325.668,540.518 281.5,543C 280.748,543.671 280.414,544.504 280.5,545.5C 278.409,540.809 277.076,535.809 276.5,530.5C 297.513,520.17 319.846,515.67 343.5,517C 375.361,514.189 406.361,517.022 436.5,525.5 Z"/></g>
<g><path style="opacity:1" fill="#c95356" d="M 437.5,521.5 C 437.567,522.959 437.234,524.292 436.5,525.5C 406.361,517.022 375.361,514.189 343.5,517C 319.846,515.67 297.513,520.17 276.5,530.5C 275.566,529.432 275.232,528.099 275.5,526.5C 289.474,513.348 306.141,505.181 325.5,502C 363.284,496.764 399.618,501.764 434.5,517C 436.439,517.908 437.439,519.408 437.5,521.5 Z"/></g>
<g><path style="opacity:1" fill="#3f1416" d="M 289.5,476.5 C 284.017,480.743 278.35,484.743 272.5,488.5C 277.281,483.273 282.948,479.273 289.5,476.5 Z"/></g>
<g><path style="opacity:1" fill="#f1a026" d="M 144.5,475.5 C 143.312,480.223 141.812,484.889 140,489.5C 139.502,491.544 138.335,492.878 136.5,493.5C 138.99,487.339 141.657,481.339 144.5,475.5 Z"/></g>
<g><path style="opacity:1" fill="#3c0f12" d="M 426.5,473.5 C 432.86,476.879 439.193,480.212 445.5,483.5C 444.833,484.167 444.167,484.833 443.5,485.5C 437.81,481.468 432.143,477.468 426.5,473.5 Z"/></g>
<g><path style="opacity:1" fill="#eb6123" d="M 144.5,424.5 C 147.347,430.92 148.68,437.753 148.5,445C 148.322,453.954 147.322,462.787 145.5,471.5C 144.566,472.568 144.232,473.901 144.5,475.5C 141.657,481.339 138.99,487.339 136.5,493.5C 118.378,522.231 92.3779,538.231 58.5,541.5C 57.5116,540.205 56.5116,538.872 55.5,537.5C 90.1158,535.676 116.282,520.009 134,490.5C 144.431,469.652 147.931,447.652 144.5,424.5 Z"/></g>
<g><path style="opacity:1" fill="#b73f43" d="M 424.5,472.5 C 424.842,473.338 425.508,473.672 426.5,473.5C 432.143,477.468 437.81,481.468 443.5,485.5C 444.124,485.917 444.457,486.584 444.5,487.5C 442.526,499.04 440.193,510.374 437.5,521.5C 437.439,519.408 436.439,517.908 434.5,517C 399.618,501.764 363.284,496.764 325.5,502C 306.141,505.181 289.474,513.348 275.5,526.5C 272.658,515.812 269.991,504.979 267.5,494C 269.373,492.296 271.04,490.463 272.5,488.5C 278.35,484.743 284.017,480.743 289.5,476.5C 322.745,458.803 357.745,454.303 394.5,463C 404.827,465.276 414.827,468.443 424.5,472.5 Z"/></g>
<g><path style="opacity:1" fill="#f29e25" d="M 140.5,406.5 C 145.171,415.159 148.004,424.493 149,434.5C 149.56,444.845 149.393,455.179 148.5,465.5C 147.5,467.5 146.5,469.5 145.5,471.5C 147.322,462.787 148.322,453.954 148.5,445C 148.68,437.753 147.347,430.92 144.5,424.5C 144.663,422.143 144.497,419.81 144,417.5C 142.241,413.991 141.074,410.325 140.5,406.5 Z"/></g>
<g><path style="opacity:1" fill="#f08624" d="M 588.5,420.5 C 587.143,428.745 586.476,437.079 586.5,445.5C 586.4,452.934 587.066,460.267 588.5,467.5C 587.833,466.5 587.167,465.5 586.5,464.5C 585.445,452.855 585.279,441.189 586,429.5C 586.406,426.258 587.239,423.258 588.5,420.5 Z"/></g>
<g><path style="opacity:1" fill="#870f17" d="M 362.5,372.5 C 365.243,374.239 367.243,376.573 368.5,379.5C 369.882,382.394 371.882,384.894 374.5,387C 399.03,407.84 426.53,413.006 457,402.5C 454.398,429.65 450.564,456.65 445.5,483.5C 439.193,480.212 432.86,476.879 426.5,473.5C 425.508,473.672 424.842,473.338 424.5,472.5C 409.562,464.593 393.562,459.759 376.5,458C 348.052,454.586 321.052,459.253 295.5,472C 293.253,473.277 291.253,474.777 289.5,476.5C 282.948,479.273 277.281,483.273 272.5,488.5C 270.629,488.859 269.129,489.859 268,491.5C 267.667,490.833 267.333,490.167 267,489.5C 261.714,461.456 257.214,433.456 253.5,405.5C 258.536,408.184 263.869,410.017 269.5,411C 287.476,413.804 305.143,412.471 322.5,407C 339.765,400.737 352.265,389.237 360,372.5C 360.77,371.402 361.603,371.402 362.5,372.5 Z"/></g>
<g><path style="opacity:1" fill="#2a1011" d="M 424.5,472.5 C 414.827,468.443 404.827,465.276 394.5,463C 357.745,454.303 322.745,458.803 289.5,476.5C 291.253,474.777 293.253,473.277 295.5,472C 321.052,459.253 348.052,454.586 376.5,458C 393.562,459.759 409.562,464.593 424.5,472.5 Z"/></g>
<g><path style="opacity:1" fill="#f7ca26" d="M 593.5,405.5 C 590.837,410.155 589.171,415.155 588.5,420.5C 587.239,423.258 586.406,426.258 586,429.5C 585.279,441.189 585.445,452.855 586.5,464.5C 542.179,466.495 497.512,467.162 452.5,466.5C 453.889,454.113 455.555,441.78 457.5,429.5C 462.594,424.904 466.761,419.571 470,413.5C 478.109,403.249 484.776,391.582 490,378.5C 490.824,375.118 490.657,371.784 489.5,368.5C 488.614,369.325 488.281,370.325 488.5,371.5C 487.127,371.343 485.793,371.51 484.5,372C 473.831,387.285 459.165,396.619 440.5,400C 423.131,402.911 406.798,399.911 391.5,391C 388.961,390.204 386.628,390.371 384.5,391.5C 378.884,387.885 373.55,383.885 368.5,379.5C 367.243,376.573 365.243,374.239 362.5,372.5C 361.37,370.685 360.704,368.685 360.5,366.5C 360.217,365.711 359.717,365.044 359,364.5C 358.667,366.5 358.333,368.5 358,370.5C 355.037,372.461 352.371,374.794 350,377.5C 347.888,381.278 345.388,384.778 342.5,388C 337.389,391.889 331.723,394.722 325.5,396.5C 312.704,398.883 299.87,401.216 287,403.5C 284.176,402.946 281.343,402.446 278.5,402C 272.695,399.431 266.695,397.431 260.5,396C 248.357,390.181 236.524,384.014 225,377.5C 225.584,379.7 225.418,381.867 224.5,384C 229.707,395.047 235.373,405.38 241.5,415C 241.043,415.414 240.709,415.914 240.5,416.5C 241.836,421.595 243.502,426.761 245.5,432C 245.576,434.78 245.576,437.613 245.5,440.5C 247.319,444.379 248.986,448.212 250.5,452C 249.692,452.308 249.025,452.808 248.5,453.5C 250.8,455.781 253.466,457.614 256.5,459C 253.833,459.333 251.167,459.667 248.5,460C 251.447,462.164 254.781,462.998 258.5,462.5C 258.5,463.5 258.5,464.5 258.5,465.5C 221.833,465.5 185.167,465.5 148.5,465.5C 149.393,455.179 149.56,444.845 149,434.5C 148.004,424.493 145.171,415.159 140.5,406.5C 138.17,402.508 135.837,398.508 133.5,394.5C 134.289,394.783 134.956,395.283 135.5,396C 161.506,396.833 187.506,396.667 213.5,395.5C 211.301,390.567 211.301,385.567 213.5,380.5C 219.953,370.629 228.62,368.129 239.5,373C 243.167,375.333 246.833,377.667 250.5,380C 258.23,383.862 266.23,387.195 274.5,390C 294.358,394.128 312.691,390.628 329.5,379.5C 334.066,375.104 338.066,370.271 341.5,365C 348.499,360.328 356.165,358.328 364.5,359C 368.967,361.491 373.634,363.491 378.5,365C 382.929,371.43 388.595,376.43 395.5,380C 400.977,381.604 406.311,383.604 411.5,386C 423.249,389.383 434.916,389.05 446.5,385C 457.717,381.443 467.717,375.777 476.5,368C 482.707,366.592 488.707,366.759 494.5,368.5C 496.8,372.846 498.133,377.513 498.5,382.5C 496.181,390.642 492.181,397.809 486.5,404C 522.174,404.267 557.841,404.767 593.5,405.5 Z"/></g>
<g><path style="opacity:1" fill="#e6b727" d="M 229.5,386.5 C 235.916,393.418 243.083,399.418 251,404.5C 252.923,422.273 255.423,439.94 258.5,457.5C 257.25,457.423 256.417,456.756 256,455.5C 253.359,439.913 249.693,424.58 245,409.5C 241.696,405.525 238.363,401.525 235,397.5C 232.454,394.14 230.621,390.474 229.5,386.5 Z"/></g>
<g><path style="opacity:1" fill="#e6b827" d="M 360.5,366.5 C 357.293,377.721 350.96,386.887 341.5,394C 321.229,406.193 299.229,411.193 275.5,409C 262.578,407.537 251.245,402.704 241.5,394.5C 242.251,393.427 243.251,393.26 244.5,394C 271.208,408.11 298.208,408.943 325.5,396.5C 331.723,394.722 337.389,391.889 342.5,388C 345.388,384.778 347.888,381.278 350,377.5C 352.371,374.794 355.037,372.461 358,370.5C 358.333,368.5 358.667,366.5 359,364.5C 359.717,365.044 360.217,365.711 360.5,366.5 Z"/></g>
<g><path style="opacity:1" fill="#edbe27" d="M 457.5,429.5 C 457.949,420.106 458.949,410.772 460.5,401.5C 467.084,399.054 472.751,395.388 477.5,390.5C 472.379,393.563 467.046,396.396 461.5,399C 434.351,409.815 408.684,407.315 384.5,391.5C 386.628,390.371 388.961,390.204 391.5,391C 406.798,399.911 423.131,402.911 440.5,400C 459.165,396.619 473.831,387.285 484.5,372C 485.793,371.51 487.127,371.343 488.5,371.5C 488.281,370.325 488.614,369.325 489.5,368.5C 490.657,371.784 490.824,375.118 490,378.5C 484.776,391.582 478.109,403.249 470,413.5C 466.761,419.571 462.594,424.904 457.5,429.5 Z"/></g>
<g><path style="opacity:1" fill="#ea5623" d="M 61.5,352.5 C 76.6318,353.488 90.6318,357.988 103.5,366C 115.097,374.104 125.097,383.604 133.5,394.5C 135.837,398.508 138.17,402.508 140.5,406.5C 141.074,410.325 142.241,413.991 144,417.5C 144.497,419.81 144.663,422.143 144.5,424.5C 147.931,447.652 144.431,469.652 134,490.5C 116.282,520.009 90.1158,535.676 55.5,537.5C 24.4555,483.356 8.45549,425.023 7.5,362.5C 11.7225,360.556 16.0558,358.889 20.5,357.5C 28.0165,356.94 35.3498,355.44 42.5,353C 48.8246,352.5 55.1579,352.334 61.5,352.5 Z"/></g>
<g><path style="opacity:1" fill="#ea5623" d="M 707.5,353.5 C 709.435,354.15 711.435,354.483 713.5,354.5C 714.383,420.304 698.383,481.637 665.5,538.5C 663.143,538.663 660.81,538.497 658.5,538C 648.013,534.756 638.013,530.422 628.5,525C 626.382,523.951 624.716,522.451 623.5,520.5C 620.326,514.812 616.159,509.812 611,505.5C 590.734,479.599 584.734,450.599 593,418.5C 608.958,375.054 640.125,352.721 686.5,351.5C 693.534,352.003 700.534,352.669 707.5,353.5 Z"/></g>
<g><path style="opacity:1" fill="#ec6723" d="M 691.5,349.5 C 697.17,349.917 702.503,351.251 707.5,353.5C 700.534,352.669 693.534,352.003 686.5,351.5C 640.125,352.721 608.958,375.054 593,418.5C 584.734,450.599 590.734,479.599 611,505.5C 616.159,509.812 620.326,514.812 623.5,520.5C 620.233,518.573 617.233,516.239 614.5,513.5C 601.149,500.796 592.482,485.462 588.5,467.5C 587.066,460.267 586.4,452.934 586.5,445.5C 586.476,437.079 587.143,428.745 588.5,420.5C 589.171,415.155 590.837,410.155 593.5,405.5C 606.654,377.354 628.32,359.354 658.5,351.5C 669.431,349.937 680.431,349.27 691.5,349.5 Z"/></g>
<g><path style="opacity:1" fill="#fbd124" d="M 495.5,312.5 C 499.098,317.768 503.432,322.435 508.5,326.5C 509.585,328.587 511.251,329.92 513.5,330.5C 516.161,333.502 519.495,335.502 523.5,336.5C 528.667,339.668 534.334,341.668 540.5,342.5C 541.919,343.451 543.585,343.784 545.5,343.5C 551.653,344.653 557.986,344.82 564.5,344C 565.737,343.768 566.737,343.268 567.5,342.5C 570.829,342.785 573.829,342.118 576.5,340.5C 580.18,339.44 583.846,338.274 587.5,337C 589.544,336.502 590.878,335.335 591.5,333.5C 592.873,333.657 594.207,333.49 595.5,333C 601.67,327.996 607.337,322.496 612.5,316.5C 645.329,317.498 678.329,317.832 711.5,317.5C 713.136,329.77 713.803,342.103 713.5,354.5C 711.435,354.483 709.435,354.15 707.5,353.5C 702.503,351.251 697.17,349.917 691.5,349.5C 684.345,348.345 677.012,348.178 669.5,349C 665.608,349.419 661.942,350.252 658.5,351.5C 628.32,359.354 606.654,377.354 593.5,405.5C 557.841,404.767 522.174,404.267 486.5,404C 492.181,397.809 496.181,390.642 498.5,382.5C 498.133,377.513 496.8,372.846 494.5,368.5C 488.707,366.759 482.707,366.592 476.5,368C 467.717,375.777 457.717,381.443 446.5,385C 434.916,389.05 423.249,389.383 411.5,386C 406.311,383.604 400.977,381.604 395.5,380C 388.595,376.43 382.929,371.43 378.5,365C 373.634,363.491 368.967,361.491 364.5,359C 356.165,358.328 348.499,360.328 341.5,365C 338.066,370.271 334.066,375.104 329.5,379.5C 312.691,390.628 294.358,394.128 274.5,390C 266.23,387.195 258.23,383.862 250.5,380C 246.833,377.667 243.167,375.333 239.5,373C 228.62,368.129 219.953,370.629 213.5,380.5C 211.301,385.567 211.301,390.567 213.5,395.5C 187.506,396.667 161.506,396.833 135.5,396C 134.956,395.283 134.289,394.783 133.5,394.5C 125.097,383.604 115.097,374.104 103.5,366C 90.6318,357.988 76.6318,353.488 61.5,352.5C 47.3697,350.099 33.7031,351.766 20.5,357.5C 16.0558,358.889 11.7225,360.556 7.5,362.5C 6.99893,346.586 7.99893,330.919 10.5,315.5C 46.1682,315.667 81.8349,315.5 117.5,315C 116.748,314.329 116.414,313.496 116.5,312.5C 119.516,315.52 122.183,318.854 124.5,322.5C 126.239,325.243 128.573,327.243 131.5,328.5C 132.585,330.587 134.251,331.92 136.5,332.5C 138.822,334.664 141.489,336.331 144.5,337.5C 150.295,340.933 156.628,343.099 163.5,344C 171.167,344.667 178.833,344.667 186.5,344C 188.058,343.79 189.391,343.29 190.5,342.5C 195.6,342.289 200.266,340.955 204.5,338.5C 209.445,336.36 214.112,333.693 218.5,330.5C 219.239,330.631 219.906,330.464 220.5,330C 225.772,325.235 230.439,320.069 234.5,314.5C 261.651,316.278 288.985,316.778 316.5,316C 317.758,311.527 320.758,309.194 325.5,309C 335.11,308.462 344.61,309.295 354,311.5C 360.281,310.073 366.448,308.24 372.5,306C 382.706,303.552 392.706,304.052 402.5,307.5C 404.874,310.028 405.874,313.028 405.5,316.5C 435.841,316.833 466.174,316.5 496.5,315.5C 495.873,314.583 495.539,313.583 495.5,312.5 Z"/></g>
<g><path style="opacity:1" fill="#5c4b16" d="M 482.5,385.5 C 481.833,388.167 480.167,389.833 477.5,390.5C 478.833,388.5 480.5,386.833 482.5,385.5 Z"/></g>
<g><path style="opacity:1" fill="#544412" d="M 482.5,385.5 C 483.391,383.391 484.558,381.391 486,379.5C 486.149,382.196 484.982,384.196 482.5,385.5 Z"/></g>
<g><path style="opacity:1" fill="#f18323" d="M 61.5,352.5 C 55.1579,352.334 48.8246,352.5 42.5,353C 35.3498,355.44 28.0165,356.94 20.5,357.5C 33.7031,351.766 47.3697,350.099 61.5,352.5 Z"/></g>
<g><path style="opacity:1" fill="#f39423" d="M 691.5,349.5 C 680.431,349.27 669.431,349.937 658.5,351.5C 661.942,350.252 665.608,349.419 669.5,349C 677.012,348.178 684.345,348.345 691.5,349.5 Z"/></g>
<g><path style="opacity:1" fill="#ae9218" d="M 567.5,342.5 C 566.737,343.268 565.737,343.768 564.5,344C 557.986,344.82 551.653,344.653 545.5,343.5C 552.868,343.683 560.201,343.35 567.5,342.5 Z"/></g>
<g><path style="opacity:1" fill="#7f6a12" d="M 576.5,340.5 C 573.829,342.118 570.829,342.785 567.5,342.5C 568.209,341.596 569.209,341.263 570.5,341.5C 572.435,340.85 574.435,340.517 576.5,340.5 Z"/></g>
<g><path style="opacity:1" fill="#715f10" d="M 204.5,338.5 C 200.266,340.955 195.6,342.289 190.5,342.5C 194.895,340.565 199.562,339.231 204.5,338.5 Z"/></g>
<g><path style="opacity:1" fill="#7b6711" d="M 144.5,337.5 C 148.237,338.2 151.904,339.2 155.5,340.5C 158.534,342.018 161.867,342.851 165.5,343C 173.852,343.622 182.186,343.455 190.5,342.5C 189.391,343.29 188.058,343.79 186.5,344C 178.833,344.667 171.167,344.667 163.5,344C 156.628,343.099 150.295,340.933 144.5,337.5 Z"/></g>
<g><path style="opacity:1" fill="#8e7714" d="M 591.5,333.5 C 590.878,335.335 589.544,336.502 587.5,337C 583.846,338.274 580.18,339.44 576.5,340.5C 581.28,337.947 586.28,335.613 591.5,333.5 Z"/></g>
<g><path style="opacity:1" fill="#53460f" d="M 523.5,336.5 C 529.363,338.12 535.03,340.12 540.5,342.5C 534.334,341.668 528.667,339.668 523.5,336.5 Z"/></g>
<g><path style="opacity:1" fill="#5a4b0f" d="M 136.5,332.5 C 140.2,332.536 142.867,334.203 144.5,337.5C 141.489,336.331 138.822,334.664 136.5,332.5 Z"/></g>
<g><path style="opacity:1" fill="#776411" d="M 131.5,328.5 C 133.749,329.08 135.415,330.413 136.5,332.5C 134.251,331.92 132.585,330.587 131.5,328.5 Z"/></g>
<g><path style="opacity:1" fill="#4c400d" d="M 508.5,326.5 C 510.749,327.08 512.415,328.413 513.5,330.5C 511.251,329.92 509.585,328.587 508.5,326.5 Z"/></g>
<g><path style="opacity:1" fill="#a08616" d="M 234.5,312.5 C 234.5,313.167 234.5,313.833 234.5,314.5C 230.439,320.069 225.772,325.235 220.5,330C 219.906,330.464 219.239,330.631 218.5,330.5C 224.233,324.772 229.567,318.772 234.5,312.5 Z"/></g>
<g><path style="opacity:1" fill="#746110" d="M 124.5,322.5 C 127.427,323.757 129.761,325.757 131.5,328.5C 128.573,327.243 126.239,325.243 124.5,322.5 Z"/></g>
<g><path style="opacity:1" fill="#151205" d="M 394.5,311.5 C 395.675,311.281 396.675,311.614 397.5,312.5C 385.44,322.241 373.44,331.907 361.5,341.5C 349.118,333.132 336.452,325.132 323.5,317.5C 324.949,316.828 326.282,316.161 327.5,315.5C 349.859,314.532 372.193,313.199 394.5,311.5 Z"/></g>
<g><path style="opacity:1" fill="#f2c526" d="M 394.5,311.5 C 395.919,310.549 397.585,310.216 399.5,310.5C 399.662,312.527 399.495,314.527 399,316.5C 396.191,320.61 393.025,324.443 389.5,328C 381.812,332.844 374.479,338.177 367.5,344C 365.412,345.03 363.245,345.863 361,346.5C 350.368,340.16 339.535,333.993 328.5,328C 326.291,324.414 323.957,320.914 321.5,317.5C 322.837,314.61 324.837,313.943 327.5,315.5C 326.282,316.161 324.949,316.828 323.5,317.5C 336.452,325.132 349.118,333.132 361.5,341.5C 373.44,331.907 385.44,322.241 397.5,312.5C 396.675,311.614 395.675,311.281 394.5,311.5 Z"/></g>
<g><path style="opacity:1" fill="#302809" d="M 241.5,253.5 C 242.5,255.5 243.5,257.5 244.5,259.5C 244.5,259.833 244.5,260.167 244.5,260.5C 244.729,270.532 244.396,280.532 243.5,290.5C 242.377,295.269 241.043,299.935 239.5,304.5C 236.862,306.418 235.195,309.085 234.5,312.5C 229.567,318.772 224.233,324.772 218.5,330.5C 214.112,333.693 209.445,336.36 204.5,338.5C 199.562,339.231 194.895,340.565 190.5,342.5C 182.186,343.455 173.852,343.622 165.5,343C 161.867,342.851 158.534,342.018 155.5,340.5C 194.479,347.261 222.645,332.928 240,297.5C 243.94,282.933 244.44,268.267 241.5,253.5 Z"/></g>
<g><path style="opacity:1" fill="#977f15" d="M 625.5,282.5 C 624.72,295.17 620.387,306.504 612.5,316.5C 607.337,322.496 601.67,327.996 595.5,333C 594.207,333.49 592.873,333.657 591.5,333.5C 610.018,321.311 621.352,304.311 625.5,282.5 Z"/></g>
<g><path style="opacity:1" fill="#050301" d="M 570.5,341.5 C 569.209,341.263 568.209,341.596 567.5,342.5C 560.201,343.35 552.868,343.683 545.5,343.5C 543.585,343.784 541.919,343.451 540.5,342.5C 535.03,340.12 529.363,338.12 523.5,336.5C 519.495,335.502 516.161,333.502 513.5,330.5C 512.415,328.413 510.749,327.08 508.5,326.5C 503.432,322.435 499.098,317.768 495.5,312.5C 492.756,308.552 490.756,304.218 489.5,299.5C 482.081,277.964 484.414,257.631 496.5,238.5C 519.074,209.285 547.407,201.785 581.5,216C 611.692,233.889 623.192,260.055 616,294.5C 608.12,316.706 593.786,331.373 573,338.5C 571.69,339.13 570.856,340.13 570.5,341.5 Z"/></g>
<g><path style="opacity:1" fill="#110e02" d="M 194.5,206.5 C 204.973,209.403 214.306,214.403 222.5,221.5C 223.75,225.086 226.084,227.752 229.5,229.5C 231.9,231.296 233.567,233.63 234.5,236.5C 234.648,239.837 235.982,242.67 238.5,245C 239.803,247.744 240.803,250.577 241.5,253.5C 244.44,268.267 243.94,282.933 240,297.5C 222.645,332.928 194.479,347.261 155.5,340.5C 151.904,339.2 148.237,338.2 144.5,337.5C 142.867,334.203 140.2,332.536 136.5,332.5C 135.415,330.413 133.749,329.08 131.5,328.5C 129.761,325.757 127.427,323.757 124.5,322.5C 122.183,318.854 119.516,315.52 116.5,312.5C 111.412,303.911 108.079,294.577 106.5,284.5C 106.448,275.482 106.782,266.482 107.5,257.5C 110.736,250.684 113.736,243.684 116.5,236.5C 116.427,234.973 117.094,233.973 118.5,233.5C 121.999,230.834 124.999,227.667 127.5,224C 130.249,221.577 133.249,219.577 136.5,218C 137.305,216.887 137.972,215.721 138.5,214.5C 142.825,210.839 147.825,208.506 153.5,207.5C 167.109,205.233 180.776,204.9 194.5,206.5 Z"/></g>
<g><path style="opacity:1" fill="#110e02" d="M 590.5,210.5 C 591.899,211.89 593.566,212.89 595.5,213.5C 595.973,214.906 596.973,215.573 598.5,215.5C 599.911,217.914 601.911,219.581 604.5,220.5C 612.479,229.475 618.812,239.475 623.5,250.5C 625.302,260.721 625.968,271.054 625.5,281.5C 625.5,281.833 625.5,282.167 625.5,282.5C 621.352,304.311 610.018,321.311 591.5,333.5C 586.28,335.613 581.28,337.947 576.5,340.5C 574.435,340.517 572.435,340.85 570.5,341.5C 570.856,340.13 571.69,339.13 573,338.5C 593.786,331.373 608.12,316.706 616,294.5C 623.192,260.055 611.692,233.889 581.5,216C 547.407,201.785 519.074,209.285 496.5,238.5C 495.504,238.414 494.671,238.748 494,239.5C 493.536,238.906 493.369,238.239 493.5,237.5C 497.732,229.602 503.398,222.936 510.5,217.5C 512.909,216.299 514.909,214.633 516.5,212.5C 518.027,212.573 519.027,211.906 519.5,210.5C 523.151,209.341 526.485,207.674 529.5,205.5C 550.506,198.913 570.839,200.58 590.5,210.5 Z"/></g>
<g><path style="opacity:1" fill="#fed723" d="M 711.5,317.5 C 678.329,317.832 645.329,317.498 612.5,316.5C 620.387,306.504 624.72,295.17 625.5,282.5C 625.5,282.167 625.5,281.833 625.5,281.5C 626.222,281.082 626.722,280.416 627,279.5C 627.667,273.167 627.667,266.833 627,260.5C 626.627,256.782 625.461,253.449 623.5,250.5C 622.391,243.944 619.891,237.944 616,232.5C 614,229.833 612,227.167 610,224.5C 608.549,222.536 606.716,221.203 604.5,220.5C 603.089,218.086 601.089,216.419 598.5,215.5C 596.973,215.573 595.973,214.906 595.5,213.5C 594.656,211.241 592.989,210.241 590.5,210.5C 590.631,209.624 590.298,208.957 589.5,208.5C 574.664,201.028 558.997,198.528 542.5,201C 537.968,202.322 533.635,203.822 529.5,205.5C 525.58,206.127 522.247,207.793 519.5,210.5C 519.027,211.906 518.027,212.573 516.5,212.5C 513.638,213.247 511.638,214.914 510.5,217.5C 503.398,222.936 497.732,229.602 493.5,237.5C 490.9,240.363 489.067,243.697 488,247.5C 481.752,265.271 482.252,282.604 489.5,299.5C 490.756,304.218 492.756,308.552 495.5,312.5C 495.539,313.583 495.873,314.583 496.5,315.5C 466.174,316.5 435.841,316.833 405.5,316.5C 405.874,313.028 404.874,310.028 402.5,307.5C 392.706,304.052 382.706,303.552 372.5,306C 366.448,308.24 360.281,310.073 354,311.5C 344.61,309.295 335.11,308.462 325.5,309C 320.758,309.194 317.758,311.527 316.5,316C 288.985,316.778 261.651,316.278 234.5,314.5C 234.5,313.833 234.5,313.167 234.5,312.5C 236.635,310.252 238.302,307.586 239.5,304.5C 241.043,299.935 242.377,295.269 243.5,290.5C 245.667,285.175 246.667,279.508 246.5,273.5C 246.621,268.907 245.954,264.574 244.5,260.5C 244.5,260.167 244.5,259.833 244.5,259.5C 243.084,250.891 239.75,243.224 234.5,236.5C 233.567,233.63 231.9,231.296 229.5,229.5C 227.906,226.236 225.573,223.569 222.5,221.5C 214.306,214.403 204.973,209.403 194.5,206.5C 188.697,204.09 182.53,203.09 176,203.5C 168.052,203.073 160.552,204.406 153.5,207.5C 147.825,208.506 142.825,210.839 138.5,214.5C 130.093,219.031 123.426,225.364 118.5,233.5C 117.094,233.973 116.427,234.973 116.5,236.5C 111.614,242.614 108.614,249.614 107.5,257.5C 105.948,262.401 105.281,267.568 105.5,273C 105.501,277.015 105.835,280.849 106.5,284.5C 108.079,294.577 111.412,303.911 116.5,312.5C 116.414,313.496 116.748,314.329 117.5,315C 81.8349,315.5 46.1682,315.667 10.5,315.5C 26.9947,204.279 82.3281,118.445 176.5,58C 267.669,5.01756 364.002,-6.98244 465.5,22C 562.687,54.1906 634.187,116.024 680,207.5C 696.489,242.464 706.989,279.131 711.5,317.5 Z"/></g>
<g><path style="opacity:1" fill="#897313" d="M 239.5,304.5 C 238.302,307.586 236.635,310.252 234.5,312.5C 235.195,309.085 236.862,306.418 239.5,304.5 Z"/></g>
<g><path style="opacity:1" fill="#67570e" d="M 244.5,260.5 C 245.954,264.574 246.621,268.907 246.5,273.5C 246.667,279.508 245.667,285.175 243.5,290.5C 244.396,280.532 244.729,270.532 244.5,260.5 Z"/></g>
<g><path style="opacity:1" fill="#51440c" d="M 107.5,257.5 C 106.782,266.482 106.448,275.482 106.5,284.5C 105.835,280.849 105.501,277.015 105.5,273C 105.281,267.568 105.948,262.401 107.5,257.5 Z"/></g>
<g><path style="opacity:1" fill="#967f15" d="M 623.5,250.5 C 625.461,253.449 626.627,256.782 627,260.5C 627.667,266.833 627.667,273.167 627,279.5C 626.722,280.416 626.222,281.082 625.5,281.5C 625.968,271.054 625.302,260.721 623.5,250.5 Z"/></g>
<g><path style="opacity:1" fill="#a4a29e" d="M 204.5,266.5 C 197.658,271.234 190.658,271.567 183.5,267.5C 190.602,269.036 197.602,268.702 204.5,266.5 Z"/></g>
<g><path style="opacity:1" fill="#b5b5b4" d="M 522.5,262.5 C 526.845,264.007 530.845,266.173 534.5,269C 537.817,269.498 541.15,269.665 544.5,269.5C 535.695,272.01 528.361,269.677 522.5,262.5 Z"/></g>
<g><path style="opacity:1" fill="#b4b3b0" d="M 209.5,233.5 C 214.001,236.979 216.001,241.646 215.5,247.5C 215.765,254.633 213.098,260.3 207.5,264.5C 206.599,260.759 207.932,258.759 211.5,258.5C 212.934,254.792 213.934,250.959 214.5,247C 213.904,242.038 212.237,237.538 209.5,233.5 Z"/></g>
<g><path style="opacity:1" fill="#2b250c" d="M 493.5,237.5 C 493.369,238.239 493.536,238.906 494,239.5C 494.671,238.748 495.504,238.414 496.5,238.5C 484.414,257.631 482.081,277.964 489.5,299.5C 482.252,282.604 481.752,265.271 488,247.5C 489.067,243.697 490.9,240.363 493.5,237.5 Z"/></g>
<g><path style="opacity:1" fill="#4d410d" d="M 116.5,236.5 C 113.736,243.684 110.736,250.684 107.5,257.5C 108.614,249.614 111.614,242.614 116.5,236.5 Z"/></g>
<g><path style="opacity:1" fill="#6e6d66" d="M 173.5,236.5 C 172.018,241.015 171.352,245.681 171.5,250.5C 170.359,247.36 170.192,244.027 171,240.5C 171.608,238.934 172.442,237.6 173.5,236.5 Z"/></g>
<g><path style="opacity:1" fill="#574a0e" d="M 234.5,236.5 C 239.75,243.224 243.084,250.891 244.5,259.5C 243.5,257.5 242.5,255.5 241.5,253.5C 240.803,250.577 239.803,247.744 238.5,245C 235.982,242.67 234.648,239.837 234.5,236.5 Z"/></g>
<g><path style="opacity:1" fill="#c1c1bd" d="M 209.5,233.5 C 205.242,232.266 201.242,230.433 197.5,228C 182.844,226.654 174.844,233.321 173.5,248C 174.492,252.125 175.159,256.291 175.5,260.5C 173.085,257.66 171.752,254.327 171.5,250.5C 171.352,245.681 172.018,241.015 173.5,236.5C 178.909,226.471 187.243,222.971 198.5,226C 203.241,227.029 206.908,229.529 209.5,233.5 Z"/></g>
<g><path style="opacity:1" fill="#9f8615" d="M 604.5,220.5 C 606.716,221.203 608.549,222.536 610,224.5C 612,227.167 614,229.833 616,232.5C 619.891,237.944 622.391,243.944 623.5,250.5C 618.812,239.475 612.479,229.475 604.5,220.5 Z"/></g>
<g><path style="opacity:1" fill="#c4c3c3" d="M 553.5,229.5 C 550.298,229.23 547.298,228.396 544.5,227C 540.5,226.333 536.5,226.333 532.5,227C 528.033,230.465 523.867,234.298 520,238.5C 518.789,241.552 517.955,244.719 517.5,248C 518.495,253.137 520.162,257.971 522.5,262.5C 512.01,246.452 515.344,233.952 532.5,225C 536.833,224.333 541.167,224.333 545.5,225C 548.684,225.754 551.351,227.254 553.5,229.5 Z"/></g>
<g><path style="opacity:1" fill="#efefee" d="M 209.5,233.5 C 212.237,237.538 213.904,242.038 214.5,247C 213.934,250.959 212.934,254.792 211.5,258.5C 207.932,258.759 206.599,260.759 207.5,264.5C 206.71,265.401 205.71,266.068 204.5,266.5C 197.602,268.702 190.602,269.036 183.5,267.5C 180.236,265.906 177.569,263.573 175.5,260.5C 175.159,256.291 174.492,252.125 173.5,248C 174.844,233.321 182.844,226.654 197.5,228C 201.242,230.433 205.242,232.266 209.5,233.5 Z"/></g>
<g><path style="opacity:1" fill="#f1f1f1" d="M 553.5,229.5 C 564.369,238.046 566.202,248.379 559,260.5C 555.29,265.432 550.456,268.432 544.5,269.5C 541.15,269.665 537.817,269.498 534.5,269C 530.845,266.173 526.845,264.007 522.5,262.5C 520.162,257.971 518.495,253.137 517.5,248C 517.955,244.719 518.789,241.552 520,238.5C 523.867,234.298 528.033,230.465 532.5,227C 536.5,226.333 540.5,226.333 544.5,227C 547.298,228.396 550.298,229.23 553.5,229.5 Z"/></g>
<g><path style="opacity:1" fill="#443a0c" d="M 222.5,221.5 C 225.573,223.569 227.906,226.236 229.5,229.5C 226.084,227.752 223.75,225.086 222.5,221.5 Z"/></g>
<g><path style="opacity:1" fill="#3b320b" d="M 138.5,214.5 C 137.972,215.721 137.305,216.887 136.5,218C 133.249,219.577 130.249,221.577 127.5,224C 124.999,227.667 121.999,230.834 118.5,233.5C 123.426,225.364 130.093,219.031 138.5,214.5 Z"/></g>
<g><path style="opacity:1" fill="#8b7513" d="M 598.5,215.5 C 601.089,216.419 603.089,218.086 604.5,220.5C 601.911,219.581 599.911,217.914 598.5,215.5 Z"/></g>
<g><path style="opacity:1" fill="#897412" d="M 516.5,212.5 C 514.909,214.633 512.909,216.299 510.5,217.5C 511.638,214.914 513.638,213.247 516.5,212.5 Z"/></g>
<g><path style="opacity:1" fill="#967f15" d="M 590.5,210.5 C 592.989,210.241 594.656,211.241 595.5,213.5C 593.566,212.89 591.899,211.89 590.5,210.5 Z"/></g>
<g><path style="opacity:1" fill="#aa9017" d="M 529.5,205.5 C 526.485,207.674 523.151,209.341 519.5,210.5C 522.247,207.793 525.58,206.127 529.5,205.5 Z"/></g>
<g><path style="opacity:1" fill="#322b0a" d="M 194.5,206.5 C 180.776,204.9 167.109,205.233 153.5,207.5C 160.552,204.406 168.052,203.073 176,203.5C 182.53,203.09 188.697,204.09 194.5,206.5 Z"/></g>
<g><path style="opacity:1" fill="#9b8315" d="M 590.5,210.5 C 570.839,200.58 550.506,198.913 529.5,205.5C 533.635,203.822 537.968,202.322 542.5,201C 558.997,198.528 574.664,201.028 589.5,208.5C 590.298,208.957 590.631,209.624 590.5,210.5 Z"/></g>
<g><path style="opacity:1" fill="#e9b32b" d="M 148.5,641.5 C 209.996,642.745 271.33,642.745 332.5,641.5C 350.973,655.631 369.306,655.631 387.5,641.5C 400.66,642.331 413.994,642.831 427.5,643C 475.166,643.5 522.832,643.667 570.5,643.5C 515.794,684.3 454.127,706.966 385.5,711.5C 384.448,711.649 383.448,711.483 382.5,711C 388.603,707.931 391.769,703.097 392,696.5C 391.215,694.714 390.049,693.214 388.5,692C 368.17,692.008 347.837,692.341 327.5,693C 323.787,694.691 322.621,697.525 324,701.5C 327.526,704.695 331.026,707.862 334.5,711C 332.866,711.494 331.199,711.66 329.5,711.5C 262.236,705.423 201.902,682.09 148.5,641.5 Z"/></g>
<g><path style="opacity:1" fill="#e4ab2d" d="M 385.5,711.5 C 366.833,712.833 348.167,712.833 329.5,711.5C 331.199,711.66 332.866,711.494 334.5,711C 331.026,707.862 327.526,704.695 324,701.5C 322.621,697.525 323.787,694.691 327.5,693C 347.837,692.341 368.17,692.008 388.5,692C 390.049,693.214 391.215,694.714 392,696.5C 391.769,703.097 388.603,707.931 382.5,711C 383.448,711.483 384.448,711.649 385.5,711.5 Z"/></g>
</svg>
